{
	"accessors": [
		{
			"bufferView": 0,
			"byteOffset": 0,
			"componentType": 5126,
			"count": 2174,
			"max": [
				0.6952741742134094,
				1.8042924404144287,
				0.7652831673622131
			],
			"min": [
				-0.7886476516723633,
				-0.007924173027276993,
				-0.7648889422416687
			],
			"type": "VEC3"
		},
		{
			"bufferView": 1,
			"byteOffset": 0,
			"componentType": 5125,
			"count": 11154,
			"type": "SCALAR"
		},
		{
			"bufferView": 2,
			"byteOffset": 0,
			"componentType": 5126,
			"count": 2174,
			"type": "VEC3"
		},
		{
			"bufferView": 3,
			"byteOffset": 0,
			"componentType": 5126,
			"count": 2174,
			"type": "VEC2"
		}
	],
	"asset": {
		"generator": "Gestaltor 2020.2.0 Alpha 'Schokoei' (CI-cce52488*)",
		"version": "2.0"
	},
	"bufferViews": [
		{
			"buffer": 0,
			"byteLength": 26088,
			"byteOffset": 0
		},
		{
			"buffer": 0,
			"byteLength": 44616,
			"byteOffset": 26088
		},
		{
			"buffer": 0,
			"byteLength": 26088,
			"byteOffset": 70704
		},
		{
			"buffer": 0,
			"byteLength": 17392,
			"byteOffset": 96792
		}
	],
	"buffers": [
		{
			"byteLength": 114184,
			"uri": "data:application/octet-stream;base64,"
		}
	],
	"cameras": [
		{
			"name": "Camera",
			"perspective": {
				"yfov": 0.8726,
				"znear": 0.01
			},
			"type": "perspective"
		}
	],
	"images": [
		{
			"mimeType": "image/jpeg",
			"uri": "data:image/jpeg;base64,"
		},
		{
			"mimeType": "image/jpeg",
			"uri": "data:image/jpeg;base64,"
		},
		{
			"mimeType": "image/jpeg",
			"uri": "data:image/jpeg;base64,"
		},
		{
			"mimeType": "image/jpeg",
			"uri": "data:image/jpeg;base64,"
		}
	],
	"materials": [
		{
			"alphaMode": "OPAQUE",
			"doubleSided": false,
			"emissiveFactor": [
				0.0,
				0.0,
				0.0
			],
			"name": "AppleMAT",
			"normalTexture": {
				"index": 2,
				"scale": 1.0,
				"texCoord": 0
			},
			"occlusionTexture": {
				"index": 3,
				"strength": 1.0,
				"texCoord": 0
			},
			"pbrMetallicRoughness": {
				"baseColorFactor": [
					1.0,
					1.0,
					1.0,
					1.0
				],
				"baseColorTexture": {
					"index": 0,
					"texCoord": 0
				},
				"metallicFactor": 1.0,
				"metallicRoughnessTexture": {
					"index": 1,
					"texCoord": 0
				},
				"roughnessFactor": 1.0
			}
		}
	],
	"meshes": [
		{
			"primitives": [
				{
					"attributes": {
						"NORMAL": 2,
						"POSITION": 0,
						"TEXCOORD_0": 3
					},
					"indices": 1,
					"material": 0,
					"mode": 4
				}
			]
		}
	],
	"nodes": [
		{
			"mesh": 0,
			"name": "Apple"
		},
		{
			"camera": 0,
			"matrix": [
				0.18294543027877808,
				-3.3687997509212245e-18,
				-0.9831230640411377,
				0.0,
				-0.15397575497627258,
				0.9876590967178345,
				-0.028652729466557503,
				0.0,
				0.9709904193878174,
				0.15661899745464325,
				0.18068771064281464,
				0.0,
				5.358658790588379,
				0.771414577960968,
				0.921303391456604,
				1.0
			],
			"name": "Camera"
		},
		{
			"name": "Texture Group"
		}
	],
	"samplers": [
		{
			"wrapS": 10497,
			"wrapT": 10497
		},
		{
			"wrapS": 10497,
			"wrapT": 10497
		},
		{
			"wrapS": 10497,
			"wrapT": 10497
		},
		{
			"wrapS": 10497,
			"wrapT": 10497
		}
	],
	"scene": 0,
	"scenes": [
		{
			"nodes": [
				0,
				1,
				2
			]
		}
	],
	"textures": [
		{
			"name": "DefaultMaterial_albedo ",
			"sampler": 0,
			"source": 0
		},
		{
			"name": "DefaultMaterial_roughness ",
			"sampler": 1,
			"source": 1
		},
		{
			"name": "DefaultMaterial_normal ",
			"sampler": 2,
			"source": 2
		},
		{
			"name": "DefaultMaterial_AO ",
			"sampler": 3,
			"source": 3
		}
	]
}